inDegrees=no
num_controls=7
num_derivatives=13
num_iterations=152
num_multipliers=7
num_parameters=0
num_slacks=7
num_states=26
objective=5.746972
objective_accelerations=0.677892
objective_balance=0.021158
objective_effort=0.484614
objective_height=4.539084
objective_ligament=0.024224
solver_duration=1257.280723
status=Solve_Succeeded
success=true
DataType=double
version=3
OpenSimVersion=4.4-2022-07-23-0e9fedc
endheader
time	/jointset/ground_pelvis/pelvis_tilt/value	/jointset/ground_pelvis/pelvis_tx/value	/jointset/ground_pelvis/pelvis_ty/value	/jointset/hip_r/hip_flexion_r/value	/jointset/hip_r/hip_adduction_r/value	/jointset/hip_r/hip_rotation_r/value	/jointset/back/lumbar_extension/value	/jointset/patellofemoral_r/patellar_flexion_r/value	/jointset/knee_r/knee_flexion_r/value	/jointset/knee_r/knee_adduction_r/value	/jointset/knee_r/knee_rotation_r/value	/jointset/ankle_r/ankle_angle_r/value	/jointset/subtalar_r/subtalar_angle_r/value	/jointset/ground_pelvis/pelvis_tilt/speed	/jointset/ground_pelvis/pelvis_tx/speed	/jointset/ground_pelvis/pelvis_ty/speed	/jointset/hip_r/hip_flexion_r/speed	/jointset/hip_r/hip_adduction_r/speed	/jointset/hip_r/hip_rotation_r/speed	/jointset/back/lumbar_extension/speed	/jointset/patellofemoral_r/patellar_flexion_r/speed	/jointset/knee_r/knee_flexion_r/speed	/jointset/knee_r/knee_adduction_r/speed	/jointset/knee_r/knee_rotation_r/speed	/jointset/ankle_r/ankle_angle_r/speed	/jointset/subtalar_r/subtalar_angle_r/speed	/forceset/tau_hip_flexion_r	/forceset/tau_hip_adduction_r	/forceset/tau_hip_rotation_r	/forceset/tau_knee_flexion_r	/forceset/tau_ankle_angle_r	/forceset/tau_subtalar_angle_r	/forceset/tau_lumbar_extension	lambda_cid13_p0	lambda_cid14_p0	lambda_cid14_p1	lambda_cid14_p2	lambda_cid14_p3	lambda_cid14_p4	lambda_cid14_p5	/jointset/ground_pelvis/pelvis_tilt/accel	/jointset/ground_pelvis/pelvis_tx/accel	/jointset/ground_pelvis/pelvis_ty/accel	/jointset/hip_r/hip_flexion_r/accel	/jointset/hip_r/hip_adduction_r/accel	/jointset/hip_r/hip_rotation_r/accel	/jointset/back/lumbar_extension/accel	/jointset/patellofemoral_r/patellar_flexion_r/accel	/jointset/knee_r/knee_flexion_r/accel	/jointset/knee_r/knee_adduction_r/accel	/jointset/knee_r/knee_rotation_r/accel	/jointset/ankle_r/ankle_angle_r/accel	/jointset/subtalar_r/subtalar_angle_r/accel	gamma_cid13_p0	gamma_cid14_p0	gamma_cid14_p1	gamma_cid14_p2	gamma_cid14_p3	gamma_cid14_p4	gamma_cid14_p5
0	-0.006317586263006781	0.1312978176365885	0.933367510922532	0.1934208783645156	-0.2283815290549167	-0.2338444697675156	-0.2903791543005566	0.2311793314021859	0.2311793314021609	0.1336552748377964	0.16584385083883	0.08934340440958972	0.06350337426334793	0	0	0	0	0	0	0	0	0	0	0	0	0	0.1157801188148672	-0.07817363419961224	0.0038513557893506	-0.2555381662153627	0.1325553128509599	-0.08059965051155916	-0.03487731806721923	-29.70520514175531	-3.184607145899702	-30.87656384196646	-0.007426819225032733	-0.815651533362058	-607.9994307467648	54.61107982186496	-2.189145216929715	-1.908424333291853	-0.8998587778632472	10.69708805861735	0.1573215496421402	2.191612598698733	-6.433646582679797	10.70215339898546	10.70215339898498	-3.0728825093253	0.5018179373613889	2.970395974942377	1.026830293472718	5.209754024928532e-08	2.897948984887597e-08	-3.772196222852738e-07	2.864040262294797e-07	1.738384549064767e-08	1.712643583234437e-07	-3.489146865827153e-07
0.01	-0.006420563164025235	0.1312036204979722	0.9333237966826594	0.1939423148616495	-0.2283713516960958	-0.2337349809631986	-0.2907024843916536	0.2317045947840304	0.2317045947840254	0.1334993338731738	0.1658650861858074	0.08948982486237378	0.06355696924097158	-0.02051160525644818	-0.01874020954741653	-0.008718529957392562	0.1038055589697897	0.002021882473333513	0.02179210154705018	-0.0642320883674023	0.1045706617568605	0.1045706617568555	-0.03102911074851942	0.004217122360481997	0.02916112342176692	0.01066985512059009	0.1111277948714129	-0.08265145939167062	0.004293057288771061	-0.2509337670326623	0.1256295344835364	-0.07422213505074818	-0.03073809347035221	-29.71091222420418	-5.13079973711389	-28.2758374480787	-0.6182176580437567	-0.434301262121943	-609.6165236120502	59.58145108222218	-1.969603715907361	-1.841933064218209	-0.8541681491258177	10.15002937796298	0.2225776458934539	2.157218261044114	-6.352900484973304	10.26220995230179	10.26220995230133	-3.094095590791703	0.3772238646741511	2.870532522952245	1.079666611460592	7.168231762169723e-08	2.23058530442562e-08	-4.858810544719875e-07	3.80057934378314e-07	3.72744258702113e-08	6.681463260757859e-08	-4.613702392726255e-07
0.02	-0.00672614322481052	0.1309249985041291	0.9331936335343238	0.1954873548608337	-0.2283413643025826	-0.2334107292777386	-0.291655117470666	0.2332611022611445	0.2332611022611384	0.1330378677544102	0.1659276056521413	0.08992416894881095	0.06371578346782295	-0.04052063194900273	-0.03688497104533684	-0.01728978169260063	0.2047207004116826	0.003962006935255873	0.04295257622753784	-0.1258605975828275	0.2062488190443391	0.2062488190443349	-0.0611050308240784	0.008256823892281948	0.05758472672985761	0.02104384984550288	0.1064754709280348	-0.08712928458380047	0.004734758787758687	-0.2463293678498691	0.1187037561161227	-0.06784461959001693	-0.02659886887342002	-29.72750671492245	-6.993055726104243	-25.68039115944269	-1.205347405497724	0.00969413045578443	-609.8649164729023	64.22680345705021	-2.088629504150288	-1.789334723393289	-0.8704031334263088	10.11900455303808	0.1409699473598635	2.065287225386168	-5.912930752284037	10.12365250510918	10.12365250510985	-2.882244374733152	0.4663337716250812	2.822891952206363	0.9676582143370007	9.126709499410914e-08	1.563221623963643e-08	-5.945424866587011e-07	4.737118425271484e-07	5.716500624977492e-08	-3.763509310828654e-08	-5.738257919625357e-07
0.03	-0.007229723896301939	0.130467887379447	0.9329781572973461	0.1980275898326662	-0.2282927131686021	-0.232878775137675	-0.2932107458762104	0.2358200759434637	0.2358200759434627	0.1322811447172466	0.1660302763668231	0.09063889153960539	0.06397644893784689	-0.06011014003621193	-0.05443906991056392	-0.02580671059039623	0.3028429326709524	0.005743294548246889	0.06332982490160895	-0.1848520355974619	0.3050604652698176	0.3050604652698022	-0.09004281807042919	0.01222731998409284	0.08522567203282236	0.03102605047160912	0.1013572838812889	-0.08284296305178936	0.005106243655391902	-0.2419018498086179	0.1137641939564936	-0.06781431891912193	-0.02225801938181966	-29.75422946139441	-8.568389978344269	-25.91842353808793	-1.195540888784092	0.3906373407182523	-610.1325077778671	62.68483757383147	-1.88130219903804	-1.723708359491538	-0.8425324500061842	9.586331725662324	0.1929728831623955	2.007773924211367	-5.830293135760695	9.68708452605	9.687084526047855	-2.870078375443832	0.3549999927105009	2.714586632861784	1.00398513408419	9.32213633361882e-08	6.210850882463406e-09	-5.79517139926645e-07	4.934537375839236e-07	6.508566429215881e-08	-1.317662177969045e-07	-5.831441145601302e-07
